<?xml version="1.0" standalone="no"?>
<!DOCTYPE svg PUBLIC "-//W3C//DTD SVG 20010904//EN"
 "http://www.w3.org/TR/2001/REC-SVG-20010904/DTD/svg10.dtd">
<svg version="1.0" xmlns="http://www.w3.org/2000/svg"
 width="600.000000pt" height="245.000000pt" viewBox="0 0 600.000000 245.000000"
 preserveAspectRatio="xMidYMid meet">

<g transform="translate(0.000000,245.000000) scale(0.100000,-0.100000)"
fill="red" stroke="none">
<path d="M790 2290 c-155 -24 -202 -36 -290 -78 -151 -71 -260 -215 -309 -407
-39 -155 -46 -246 -46 -605 0 -290 3 -360 18 -440 51 -265 159 -434 332 -519
158 -78 244 -91 638 -98 580 -10 799 39 978 218 81 81 140 205 171 359 22 108
23 139 23 490 0 381 -4 440 -42 585 -22 84 -107 247 -156 300 -80 85 -242 162
-409 191 -144 26 -750 28 -908 4z m630 -178 c91 -32 193 -124 239 -214 l22
-43 -4 41 c-3 22 -15 63 -28 90 -13 27 -25 54 -27 59 -12 28 73 -66 90 -99 35
-69 23 -171 -24 -200 -27 -16 -55 17 -63 74 -7 49 -57 140 -77 140 -6 0 -8
-14 -4 -35 4 -19 5 -35 3 -35 -3 0 -16 24 -31 53 -33 68 -103 139 -169 172
l-52 25 40 -6 c22 -3 60 -13 85 -22z m-128 -32 c74 -23 139 -73 168 -131 30
-57 24 -68 -10 -21 -16 23 -47 53 -67 66 -69 44 -110 44 -62 0 22 -20 49 -66
49 -84 0 -6 -15 6 -32 27 -60 69 -107 102 -197 139 l-56 24 71 0 c44 0 97 -8
136 -20z m-121 -51 c72 -35 148 -98 184 -153 10 -14 15 -29 13 -32 -3 -2 -47
23 -97 57 -145 96 -190 113 -291 112 -49 0 -104 -7 -130 -16 l-45 -15 100 -1
c66 -1 108 -7 125 -16 24 -14 23 -14 -29 -15 -70 0 -131 -29 -176 -84 -24 -30
-48 -47 -77 -55 -91 -27 -213 -122 -280 -218 -45 -67 -53 -51 -13 26 71 134
182 229 324 278 54 19 61 23 36 24 -69 4 -113 -4 -170 -32 l-60 -29 65 63
c107 102 223 148 366 143 69 -2 92 -8 155 -37z m-104 -140 c35 -13 133 -71
133 -79 0 -3 -15 -11 -33 -18 -28 -10 -39 -9 -72 8 -22 11 -51 20 -66 20 -41
0 -91 -21 -85 -35 2 -7 -4 -21 -15 -31 -25 -23 -24 -36 6 -72 18 -22 22 -32
13 -36 -7 -3 5 -4 27 -2 l40 5 -28 -24 c-37 -32 -67 -32 -99 3 -101 105 -32
269 114 271 20 1 49 -4 65 -10z m491 -115 c65 -38 152 -102 185 -137 18 -20
27 -40 27 -63 0 -19 -3 -34 -7 -34 -5 0 -18 -3 -30 -6 -20 -6 -23 -2 -24 22 0
28 0 29 -10 5 -7 -17 -15 -22 -30 -18 -20 5 -20 5 -4 -21 9 -15 70 -79 135
-142 106 -103 119 -119 125 -158 6 -39 4 -47 -21 -74 -27 -28 -27 -30 -6 -24
18 6 22 4 22 -16 0 -39 -27 -67 -73 -75 l-42 -7 50 -11 50 -11 -27 -27 c-15
-15 -37 -27 -50 -27 -31 0 -88 36 -88 56 0 33 35 87 96 148 35 35 64 68 64 73
0 4 -55 7 -123 7 -207 -3 -192 5 -119 -62 67 -63 73 -81 57 -158 -7 -31 -123
-79 -190 -79 -61 0 -111 31 -123 78 -12 44 -7 49 36 31 63 -27 115 -36 172
-28 l55 7 -70 13 c-38 7 -99 24 -135 37 -62 24 -65 26 -65 58 0 31 2 34 30 33
17 -1 75 -18 129 -38 54 -20 101 -34 103 -32 3 3 -14 18 -37 35 -35 25 -97 50
-199 77 -10 3 -10 10 4 32 27 43 52 60 109 73 l53 12 -10 46 c-13 64 -23 73
-68 66 -47 -8 -74 18 -82 77 -3 22 -11 46 -18 52 -9 8 -10 5 -5 -16 l6 -27
-82 4 c-69 4 -78 3 -53 -6 17 -6 43 -23 60 -38 20 -18 24 -19 12 -4 -14 16
-15 23 -6 29 7 4 15 2 17 -4 2 -7 13 -12 25 -12 20 -1 21 -2 5 -14 -25 -18
-22 -26 7 -26 26 0 47 -25 65 -77 10 -28 8 -36 -29 -88 -54 -77 -74 -139 -69
-220 l3 -65 -41 0 c-54 0 -84 28 -84 79 0 39 24 84 81 149 16 18 29 35 29 38
0 7 -40 -15 -77 -42 -17 -13 -34 -24 -37 -24 -3 0 -6 16 -6 35 0 25 -9 44 -30
67 l-30 33 6 -32 c6 -29 1 -38 -53 -95 -33 -35 -66 -72 -72 -83 -25 -41 -4
118 28 209 35 100 40 136 13 96 -9 -14 -60 -68 -114 -121 -82 -80 -104 -108
-133 -172 -49 -106 -62 -200 -46 -328 7 -55 15 -108 18 -117 2 -9 -9 6 -26 33
-46 75 -64 146 -65 255 0 92 1 98 41 181 37 75 54 97 128 164 68 62 100 102
157 194 40 64 90 135 111 158 l38 42 -74 -6 c-41 -3 -101 -2 -133 2 l-59 8
115 17 c63 10 147 25 185 35 87 21 163 14 223 -21 38 -23 42 -23 33 -7 -5 11
-17 25 -25 33 -9 7 -16 18 -16 26 0 17 47 3 108 -32z m-838 -108 c0 -2 -19
-15 -42 -29 -24 -14 -63 -46 -88 -72 l-45 -47 40 23 40 23 -25 -28 -25 -29 34
18 c29 15 118 45 131 45 3 0 -19 -13 -48 -28 -112 -58 -188 -149 -237 -285
-31 -84 -41 -56 -26 76 16 143 64 230 158 288 51 32 133 59 133 45z m1047
-161 c2 -6 -4 -20 -12 -30 -15 -20 -15 -20 -30 -1 -11 15 -12 23 -3 33 12 15
39 14 45 -2z m-857 -9 c0 -2 -24 -18 -53 -34 -157 -89 -250 -265 -233 -443 7
-74 2 -86 -15 -41 -26 66 -39 174 -29 235 5 33 8 62 6 64 -7 7 -47 -70 -66
-128 -24 -71 -26 -185 -5 -255 21 -70 18 -99 -6 -48 -66 144 -65 326 3 470 12
26 46 72 75 103 l53 56 -31 -51 c-17 -29 -34 -69 -39 -90 -7 -32 -6 -35 3 -20
25 42 103 119 142 139 74 40 83 41 50 6 l-30 -31 34 17 c27 13 109 46 139 54
1 1 2 -1 2 -3z m74 -293 c-15 -37 -31 -72 -35 -78 -28 -39 -44 -304 -20 -328
6 -6 11 -18 11 -25 0 -8 16 -47 34 -86 26 -52 58 -95 120 -158 48 -48 86 -93
86 -99 0 -8 -4 -8 -12 -2 -7 6 -52 40 -99 76 -48 37 -101 83 -118 102 -57 65
-97 162 -108 264 -7 62 15 187 43 246 25 53 113 169 121 161 3 -3 -7 -36 -23
-73z m187 -91 c-24 -68 -27 -160 -7 -242 8 -30 38 -109 67 -175 44 -100 54
-132 57 -191 3 -47 0 -80 -9 -95 -13 -23 -13 -23 -21 20 -5 28 -35 90 -80 164
-143 237 -152 354 -41 531 53 83 66 79 34 -12z m-598 -140 c51 -162 152 -304
291 -409 86 -65 87 -67 26 -43 -129 51 -254 159 -303 264 -35 74 -63 246 -39
246 4 0 15 -26 25 -58z m1178 -35 c43 -33 71 -134 51 -186 l-9 -25 -7 29 -7
28 -24 -49 c-19 -40 -24 -45 -25 -24 -1 23 -2 24 -14 8 -7 -10 -17 -18 -21
-18 -4 0 -4 8 -1 18 3 9 -7 2 -23 -17 -34 -38 -46 -35 -55 14 -9 46 -26 45
-26 -2 l-1 -38 -14 33 c-16 36 -30 44 -19 10 l6 -23 -25 23 c-18 17 -27 20
-32 11 -6 -8 -12 -4 -22 15 -7 14 -20 26 -28 26 -17 0 -39 40 -50 88 -7 32 -6
34 16 26 38 -12 72 -6 171 30 101 37 134 42 159 23z m-459 -96 c86 -117 108
-170 108 -266 0 -99 -26 -161 -92 -221 -79 -73 -95 -73 -39 0 28 37 55 83 60
104 31 121 23 167 -54 333 -30 65 -55 120 -55 123 0 18 21 -3 72 -73z"/>
<path d="M1557 1594 c4 -25 1 -40 -12 -54 -18 -20 -17 -20 14 -20 18 0 41 -5
52 -10 21 -12 23 -8 10 18 -4 9 -16 34 -26 54 -24 51 -45 58 -38 12z"/>
<path d="M3155 1595 c-18 -18 -25 -35 -25 -65 0 -58 26 -80 94 -80 75 0 101
22 101 85 0 62 -27 85 -97 85 -39 0 -54 -5 -73 -25z"/>
<path d="M2578 1423 c0 -92 -1 -253 -2 -358 l0 -190 174 0 c167 0 177 1 225
25 68 34 95 87 95 185 0 78 -19 121 -66 151 -26 18 -26 18 -6 34 92 75 79 242
-23 294 -35 18 -62 21 -217 24 l-178 4 -2 -169z m266 1 c21 -20 22 -117 2
-133 -8 -7 -30 -11 -48 -9 l-33 3 -3 69 c-3 73 3 86 45 86 12 0 29 -7 37 -16z
m5 -263 c9 -6 16 -32 19 -68 5 -70 -11 -93 -64 -93 l-34 0 0 85 0 85 33 0 c17
0 38 -4 46 -9z"/>
<path d="M4100 1204 l0 -346 173 4 c154 3 176 6 214 26 60 31 83 80 83 174 0
79 -19 126 -60 148 l-22 12 25 26 c38 42 50 71 49 129 0 59 -21 104 -63 135
-33 25 -126 38 -276 38 l-123 0 0 -346z m252 179 c12 -11 18 -30 18 -58 0 -54
-18 -78 -55 -73 -29 3 -30 5 -33 62 -2 32 -1 65 2 72 7 19 46 17 68 -3z m8
-253 c15 -15 20 -33 20 -69 0 -60 -19 -83 -64 -79 l-31 3 -3 69 c-2 38 -1 75
2 83 8 20 53 16 76 -7z"/>
<path d="M3534 1430 c-18 -4 -47 -16 -65 -28 -91 -56 -104 -200 -26 -289 30
-34 31 -37 12 -47 -47 -27 -65 -54 -65 -99 0 -34 6 -49 25 -67 l25 -24 -26
-27 c-25 -26 -25 -29 -12 -65 16 -45 46 -60 153 -75 183 -25 298 39 300 169 0
48 -3 57 -33 83 -28 25 -41 29 -95 31 -178 5 -177 5 -177 27 0 16 10 19 90 23
99 5 126 17 168 78 26 40 31 133 7 166 -18 26 -11 34 32 34 l33 0 0 60 0 60
-157 -1 c-87 -1 -172 -4 -189 -9z m112 -151 c12 -13 18 -33 17 -60 -2 -46 -17
-69 -43 -69 -24 0 -36 18 -44 67 -5 35 -3 46 14 63 25 25 32 25 56 -1z m53
-418 c8 -5 11 -16 8 -25 -5 -13 -22 -16 -87 -16 -72 0 -80 2 -80 19 0 11 6 22
13 24 21 9 131 7 146 -2z"/>
<path d="M3140 1150 l0 -270 90 0 90 0 0 270 0 270 -90 0 -90 0 0 -270z"/>
<path d="M4755 1388 c-81 -29 -123 -100 -132 -222 -6 -84 16 -203 46 -245 41
-57 152 -85 250 -61 92 22 131 72 150 198 12 79 1 194 -25 243 -19 38 -68 76
-112 89 -47 13 -138 12 -177 -2z m125 -148 c14 -26 17 -227 3 -241 -6 -6 -23
-9 -39 -7 -35 4 -41 25 -43 143 -1 58 3 87 15 103 19 27 50 28 64 2z"/>
<path d="M5216 1390 c-65 -21 -106 -86 -106 -167 0 -81 47 -132 166 -183 27
-12 44 -26 44 -36 0 -15 -8 -16 -62 -9 -121 15 -112 19 -119 -55 -4 -36 -6
-66 -5 -67 7 -8 117 -23 165 -23 69 0 117 23 149 70 20 30 23 45 20 102 -5 88
-24 113 -118 160 -115 57 -107 90 16 64 38 -8 72 -11 75 -8 4 4 9 37 12 73 6
63 5 67 -16 73 -40 12 -191 16 -221 6z"/>
<path d="M5573 1380 c-64 -29 -85 -69 -81 -157 3 -64 7 -76 33 -104 17 -17 62
-47 100 -65 39 -19 70 -40 70 -47 0 -14 -66 -15 -131 -3 l-41 8 -6 -68 c-4
-37 -5 -70 -2 -72 2 -3 43 -10 90 -15 148 -19 226 19 240 117 16 105 -15 160
-119 212 -72 35 -92 56 -63 66 6 3 44 -1 82 -7 44 -8 72 -9 76 -3 8 12 21 130
15 136 -11 10 -88 22 -151 22 -48 0 -83 -7 -112 -20z"/>
</g>
</svg>
